HIERARCHY
ROOT Hips
{
	OFFSET 0.000000 0.000000 0.000000
	CHANNELS 6 Xposition Yposition Zposition Xrotation Yrotation Zrotation
	JOINT LeftUpLeg_virtual
	{
		OFFSET 0.000000 0.000000 0.000000
		CHANNELS 3 Xrotation Yrotation Zrotation
		JOINT LeftUpLeg
		{
			OFFSET 11.394100 -6.187798 -0.413800
			CHANNELS 3 Xrotation Yrotation Zrotation
			JOINT LeftLeg
			{
				OFFSET 0.430247 -32.302673 3.732800
				CHANNELS 3 Xrotation Yrotation Zrotation
				JOINT LeftFoot
				{
					OFFSET -0.430247 -48.264931 -6.423300
					CHANNELS 3 Xrotation Yrotation Zrotation
					JOINT LeftToeBase
					{
						OFFSET 4.230900 -16.068199 23.438400
						CHANNELS 3 Xrotation Yrotation Zrotation
						JOINT LeftToe_End
						{
							OFFSET 4.510700 0.695400 19.974600
							CHANNELS 3 Xrotation Yrotation Zrotation
							End Site
							{
								OFFSET 0 0 0
							}
						}
					}
				}
			}
		}
	}
	JOINT RightUpLeg_virtual
	{
		OFFSET 0.000000 0.000000 0.000000
		CHANNELS 3 Xrotation Yrotation Zrotation
		JOINT RightUpLeg
		{
			OFFSET -11.333700 -6.187798 -0.413800
			CHANNELS 3 Xrotation Yrotation Zrotation
			JOINT RightLeg
			{
				OFFSET -0.430392 -32.302628 3.733000
				CHANNELS 3 Xrotation Yrotation Zrotation
				JOINT RightFoot
				{
					OFFSET 0.430392 -48.264973 -6.423500
					CHANNELS 3 Xrotation Yrotation Zrotation
					JOINT RightToeBase
					{
						OFFSET -4.230900 -16.068199 23.438400
						CHANNELS 3 Xrotation Yrotation Zrotation
						JOINT RightToe_End
						{
							OFFSET -4.510700 0.695400 19.974600
							CHANNELS 3 Xrotation Yrotation Zrotation
							End Site
							{
								OFFSET 0 0 0
							}
						}
					}
				}
			}
		}
	}
	JOINT Spine_virtual
	{
		OFFSET 0.000000 0.000000 0.000000
		CHANNELS 3 Xrotation Yrotation Zrotation
		JOINT Spine
		{
			OFFSET -0.002400 12.777504 0.315300
			CHANNELS 3 Xrotation Yrotation Zrotation
			JOINT Spine1
			{
				OFFSET -0.002067 5.816869 0.032633
				CHANNELS 3 Xrotation Yrotation Zrotation
				JOINT Spine1_split
				{
					OFFSET -0.002067 5.816869 0.032633
					CHANNELS 3 Xrotation Yrotation Zrotation
					JOINT Spine2
					{
						OFFSET -0.002067 5.816869 0.032633
						CHANNELS 3 Xrotation Yrotation Zrotation
						JOINT Neck_virtual
						{
							OFFSET 0.000000 0.000000 0.000000
							CHANNELS 3 Xrotation Yrotation Zrotation
							JOINT Neck
							{
								OFFSET -0.003700 21.199493 -0.826900
								CHANNELS 3 Xrotation Yrotation Zrotation
								JOINT Head
								{
									OFFSET 0.000000 20.442200 4.834800
									CHANNELS 3 Xrotation Yrotation Zrotation
									JOINT HeadTop_End
									{
										OFFSET 0.000000 34.668396 4.968400
										CHANNELS 3 Xrotation Yrotation Zrotation
										End Site
										{
											OFFSET 0 0 0
										}
									}
								}
							}
						}
						JOINT LeftShoulder_virtual
						{
							OFFSET 0.000000 0.000000 0.000000
							CHANNELS 3 Xrotation Yrotation Zrotation
							JOINT LeftShoulder
							{
								OFFSET 3.288150 8.794197 -1.372250
								CHANNELS 3 Xrotation Yrotation Zrotation
								JOINT LeftShoulder_split
								{
									OFFSET 3.288150 8.794197 -1.372250
									CHANNELS 3 Xrotation Yrotation Zrotation
									JOINT LeftArm
									{
										OFFSET 11.953299 -2.279007 -0.146200
										CHANNELS 3 Xrotation Yrotation Zrotation
										JOINT LeftForeArm
										{
											OFFSET 18.448900 0.000000 0.000000
											CHANNELS 3 Xrotation Yrotation Zrotation
											JOINT LeftHand
											{
												OFFSET 29.527798 0.000000 0.000000
												CHANNELS 3 Xrotation Yrotation Zrotation
												End Site
												{
													OFFSET 0 0 0
												}
											}
										}
									}
								}
							}
						}
						JOINT RightShoulder_virtual
						{
							OFFSET 0.000000 0.000000 0.000000
							CHANNELS 3 Xrotation Yrotation Zrotation
							JOINT RightShoulder
							{
								OFFSET -3.249400 8.794197 -1.372250
								CHANNELS 3 Xrotation Yrotation Zrotation
								JOINT RightShoulder_split
								{
									OFFSET -3.249400 8.794197 -1.372250
									CHANNELS 3 Xrotation Yrotation Zrotation
									JOINT RightArm
									{
										OFFSET -11.953299 -2.279007 -0.146200
										CHANNELS 3 Xrotation Yrotation Zrotation
										JOINT RightForeArm
										{
											OFFSET -18.448900 0.000000 0.000000
											CHANNELS 3 Xrotation Yrotation Zrotation
											JOINT RightHand
											{
												OFFSET -29.527802 0.000000 0.000000
												CHANNELS 3 Xrotation Yrotation Zrotation
												End Site
												{
													OFFSET 0 0 0
												}
											}
										}
									}
								}
							}
						}
					}
				}
			}
		}
	}
}
MOTION
Frames: 6
Frame Time: 0.03333333
0.387707 81.364052 3.719357 0.000000 0.000000 0.000000 22.073167 -19.464200 7.504311 -77.550241 -0.419422 20.980205 55.311808 1.850600 3.906405 4.874568 0.391059 -19.128577 -3.049743 -0.268008 -1.180613 0.000000 0.000000 0.000000 21.355034 -20.493341 7.901514 -74.434186 -3.992834 -21.076309 58.973779 -1.714962 -7.917805 -3.663170 -2.145236 17.266355 -4.896721 1.750203 -0.470921 0.000000 0.000000 0.000000 24.317207 -21.767027 7.901144 16.047627 2.155175 -1.002842 10.218119 2.106577 -1.211658 1.074075 0.666569 0.740118 0.000000 0.000000 0.000000 10.279919 1.774097 -0.475115 -8.190957 5.162244 -8.951892 -40.765779 9.769423 8.553761 0.000000 0.000000 0.000000 10.260885 1.837919 -1.255378 3.660546 -6.293347 7.050079 -5.792616 -3.048582 -0.655204 -51.887332 4.599158 -60.937623 -1.592709 -84.049911 -0.218141 0.000000 0.000000 0.000000 11.502258 2.375771 -0.497353 2.837563 14.151930 4.701745 -1.041198 2.243763 1.025378 -40.996079 10.265307 45.869252 160.907905 88.430650 -161.391223 0.000000 0.000000 0.000000 
0.475269 81.552383 3.936436 0.000000 0.000000 0.000000 22.330650 -19.110485 7.733445 -77.274595 -0.035565 20.634295 54.483009 1.477328 4.081605 4.682783 0.299224 -19.189616 -3.225216 -0.234759 -0.935065 0.000000 0.000000 0.000000 21.708124 -20.369144 8.210838 -74.071271 -4.043119 -20.831742 58.225696 -1.300830 -8.409158 -3.781983 -2.425936 17.354722 -4.922003 1.848150 -0.459288 0.000000 0.000000 0.000000 24.321575 -21.335093 8.024722 16.152431 2.188741 -0.977186 10.074588 2.161359 -1.282825 1.038754 0.238320 0.779448 0.000000 0.000000 0.000000 10.408617 1.809931 -0.542854 -7.786591 5.184245 -8.623237 -40.987535 10.600017 8.303552 0.000000 0.000000 0.000000 10.307096 1.875635 -1.213619 3.466202 -5.574774 6.148115 -5.883463 -3.068517 -0.800260 -50.386090 5.117081 -61.902558 -2.858817 -86.126718 -1.584969 0.000000 0.000000 0.000000 11.499125 2.307645 -0.585965 2.737378 13.949079 5.891080 -1.393306 2.625746 0.870119 -39.285298 10.685851 46.649963 174.790265 85.145500 -175.398507 0.000000 0.000000 0.000000 
0.467337 81.543961 4.105362 0.000000 0.000000 0.000000 22.567500 -18.962458 8.050115 -77.296718 0.274898 20.472881 54.209996 1.114264 4.227200 4.527154 0.188647 -19.327895 -3.361213 -0.226535 -0.640295 0.000000 0.000000 0.000000 22.177607 -20.373906 8.594871 -74.151122 -3.894997 -20.596924 57.916937 -1.019631 -8.827247 -3.835956 -2.451421 17.399903 -4.953179 1.948102 -0.456235 0.000000 0.000000 0.000000 24.375185 -21.055078 8.188475 16.264014 2.134620 -0.982831 10.038786 2.070036 -1.314051 0.967251 0.041711 0.730575 0.000000 0.000000 0.000000 10.607379 1.707084 -0.590020 -7.311789 5.183230 -8.327963 -41.225366 11.423132 7.978940 0.000000 0.000000 0.000000 10.493788 1.768591 -1.126753 3.332796 -5.093827 5.616357 -5.801183 -3.019112 -0.895015 -48.768719 5.621857 -62.407329 -5.439324 -88.631267 -4.200866 0.000000 0.000000 0.000000 11.570439 2.088871 -0.646478 2.729800 13.641124 6.539147 -1.694519 2.816907 0.771635 -38.253605 10.578732 47.909474 177.451320 81.332158 -178.166700 0.000000 0.000000 0.000000 
0.376870 81.391159 4.225780 0.000000 0.000000 0.000000 22.816100 -18.915423 8.391022 -77.527537 0.491856 20.473866 54.327376 0.847235 4.332406 4.360453 0.176788 -19.474664 -3.251697 -0.225458 -0.390020 0.000000 0.000000 0.000000 22.727470 -20.462183 8.994019 -74.478917 -3.698768 -20.373522 57.964605 -0.910873 -9.129080 -3.939579 -2.303517 17.289709 -4.941195 2.049385 -0.453271 0.000000 0.000000 0.000000 24.517720 -20.860760 8.339273 16.363914 2.007061 -0.985306 10.117264 1.892594 -1.304773 0.926549 0.011199 0.722090 0.000000 0.000000 0.000000 10.845954 1.516279 -0.617045 -6.878563 5.172054 -8.104202 -41.531279 12.218009 7.573819 0.000000 0.000000 0.000000 10.789961 1.568468 -1.015826 3.249762 -4.894697 5.137767 -5.514077 -2.879217 -0.883721 -47.147717 6.123897 -62.490678 -176.763943 -88.992447 -175.468420 0.000000 0.000000 0.000000 11.695251 1.788521 -0.679876 2.775660 13.313041 6.764509 -1.889795 2.892395 0.756836 -37.647969 9.810955 49.442851 178.378942 77.359747 -179.179795 0.000000 0.000000 0.000000 
0.212828 81.159409 4.267639 0.000000 0.000000 0.000000 23.081953 -18.948844 8.705217 -77.805656 0.579372 20.575117 54.590410 0.727293 4.416216 4.196380 0.344170 -19.651539 -2.988019 -0.206905 -0.214822 0.000000 0.000000 0.000000 23.240677 -20.619532 9.341806 -74.967139 -3.537670 -20.165027 58.308403 -0.981589 -9.304121 -4.103789 -2.071418 17.090446 -5.062366 2.137215 -0.412040 0.000000 0.000000 0.000000 24.763353 -20.719710 8.481886 16.449655 1.829657 -0.952291 10.271105 1.683508 -1.258932 0.867952 0.041029 0.659244 0.000000 0.000000 0.000000 11.089922 1.297492 -0.636453 -6.540888 5.111520 -7.991836 -41.878779 13.014203 7.071670 0.000000 0.000000 0.000000 11.133236 1.340720 -0.919308 3.181050 -4.888609 4.414517 -5.237708 -2.628363 -0.729991 -45.635513 6.534775 -62.322423 -179.682647 -87.113230 -178.296665 0.000000 0.000000 0.000000 11.893865 1.499207 -0.697264 2.839900 13.002813 6.707917 -2.029181 3.005773 0.787176 -37.168192 8.715198 50.853398 178.727404 73.801902 -179.603499 0.000000 0.000000 0.000000 
-0.014803 80.874939 4.230785 0.000000 0.000000 0.000000 23.352048 -18.998035 8.947050 -78.050402 0.492371 20.703237 54.867043 0.720697 4.510950 4.063992 0.638927 -19.893814 -2.852834 -0.180384 -0.048668 0.000000 0.000000 0.000000 23.649320 -20.770429 9.592996 -75.521996 -3.403751 -19.964885 58.926180 -1.190972 -9.376767 -4.335152 -1.799470 16.879084 -5.400779 2.204001 -0.347119 0.000000 0.000000 0.000000 25.052354 -20.567643 8.607620 16.487913 1.652027 -0.858539 10.474022 1.513790 -1.187334 0.948697 0.166126 0.721961 0.000000 0.000000 0.000000 11.314980 1.117999 -0.645910 -6.300925 5.014019 -8.054390 -42.290455 13.819015 6.476689 0.000000 0.000000 0.000000 11.486419 1.142325 -0.840166 3.099916 -4.928122 3.400680 -4.910883 -2.361591 -0.454856 -44.391264 6.700472 -62.184255 -179.867595 -85.861420 -178.403899 0.000000 0.000000 0.000000 12.146835 1.289476 -0.703941 2.890312 12.745337 6.547102 -2.154343 3.028611 1.037914 -36.680226 7.860707 51.892594 178.846386 71.265176 -179.799976 0.000000 0.000000 0.000000 
